<svg width="454" height="554" viewBox="0 0 454 554" fill="none" xmlns="http://www.w3.org/2000/svg">
<path d="M46.168 484.75C46.168 415.5 88.8721 361.023 163.431 346.25C219.293 335.17 277.001 300.083 300.085 277M253.923 461.667C213.39 461.79 174.291 446.674 144.382 419.318C114.472 391.963 95.9354 354.365 92.4491 313.982C88.9628 273.599 100.781 233.381 125.56 201.304C150.339 169.227 186.269 147.634 226.223 140.808C357.798 115.417 392.423 103.413 438.59 46.1667C461.673 92.3334 484.756 142.655 484.756 230.833C484.756 357.792 374.418 461.667 253.923 461.667Z" stroke="#E1E1E1" stroke-opacity="0.54" stroke-width="8" stroke-linecap="round" stroke-linejoin="round"/>
</svg>
