<svg width="96" height="96" viewBox="0 0 96 96" fill="none" xmlns="http://www.w3.org/2000/svg">
<path fill-rule="evenodd" clip-rule="evenodd" d="M43.8958 16.2009C45.9756 15.5335 48.1981 15.4463 50.3238 15.9489L51.2238 16.2009L77.3598 24.5849C78.1198 24.8369 78.8038 25.3089 79.3038 25.9689L79.5838 26.3889L90.5838 45.3769C90.862 45.8566 91.0375 46.3888 91.0991 46.9399C91.1607 47.4909 91.107 48.0488 90.9415 48.578C90.776 49.1072 90.5023 49.5962 90.1377 50.014C89.7732 50.4318 89.3257 50.7693 88.8238 51.0049L88.3438 51.1929L80.1398 53.8249V71.1449C80.1392 72.7284 80.3828 74.6861 79.502 76.002C78.6211 77.3179 76.6555 77.9328 75.1918 78.5369L74.5838 78.7609L51.2238 86.2489C49.144 86.9164 46.9214 87.0035 44.7958 86.5009L43.8958 86.2529L20.5358 78.7609C19.0276 78.2766 16.5199 78.2431 15.5358 77.002C14.5517 75.7608 15.1355 73.3678 15.0078 71.7889L14.9798 71.1409V53.8249L6.77577 51.1929C6.24817 51.0236 5.7615 50.7465 5.34662 50.3792C4.93174 50.0119 4.59769 49.5625 4.36565 49.0593C4.13362 48.5561 4.00866 48.0102 3.99869 47.4562C3.98873 46.9022 4.09398 46.3521 4.30777 45.8409L4.53577 45.3769L15.5358 26.3889C15.9481 25.6775 16.5696 25.1104 17.3158 24.7649L17.7558 24.5849L43.8958 16.2009ZM49.002 45.0929L49.502 82.002L76.002 73.502V55.002L59.7798 60.3569C58.9871 60.6112 58.1349 60.6118 57.3419 60.3587C56.5489 60.1056 55.8546 59.6114 55.3558 58.9449L55.0998 58.5529L49.002 45.0929ZM46.502 45.0929L40.0198 58.5529C39.5623 59.3422 38.8489 59.9515 37.9976 60.2796C37.1464 60.6077 36.2086 60.635 35.3398 60.3569L18.502 54.502V73.502L46.502 82.002V45.0929ZM18.502 29.002L8.50195 47.4562L37.002 55.502L45.002 40.002L18.502 29.002ZM76.7285 29.002L50.2285 40.002L59.002 56.3929L85.7285 47.502L76.7285 29.002ZM53.502 20.002C52.8687 19.7997 47.6551 17.8785 47.002 18.002L23.502 27.002L47.502 37.002L72.502 26.3889L53.502 20.002Z" fill="#595959"/>
</svg>
