<svg width="24" height="24" viewBox="0 0 24 24" fill="none" xmlns="http://www.w3.org/2000/svg">
<path d="M6.00283 5.12603C5.98499 4.72645 6.04722 4.32735 6.18588 3.95218C6.32454 3.57701 6.53682 3.23336 6.81023 2.94143C7.08365 2.6495 7.41268 2.4152 7.77797 2.25229C8.14326 2.08939 8.53744 2.00117 8.93733 1.99284C9.33721 1.9845 9.73472 2.05622 10.1065 2.20376C10.4783 2.3513 10.8168 2.57169 11.1021 2.85197C11.3874 3.13225 11.6139 3.46676 11.768 3.83583C11.9222 4.20489 12.001 4.60106 11.9998 5.00103V18.001M6.00283 5.12603C5.41503 5.27716 4.86933 5.56008 4.40706 5.95334C3.94479 6.3466 3.57807 6.8399 3.33467 7.39587C3.09128 7.95185 2.97759 8.55592 3.00222 9.16234C3.02685 9.76876 3.18915 10.3616 3.47683 10.896M6.00283 5.12603C6.02261 5.60976 6.15926 6.08147 6.40093 6.50098M3.47683 10.896C2.97101 11.307 2.57326 11.8353 2.31817 12.435C2.06308 13.0347 1.95839 13.6876 2.01319 14.337C2.068 14.9864 2.28065 15.6126 2.63264 16.161C2.98462 16.7095 3.46529 17.1637 4.03283 17.484M3.47683 10.896C3.65977 10.747 3.85575 10.6155 4.06205 10.501M4.03283 17.484C3.96275 18.0263 4.00457 18.5771 4.15572 19.1026C4.30686 19.628 4.56413 20.1169 4.91161 20.539C5.2591 20.9611 5.68944 21.3075 6.17605 21.5568C6.66266 21.8061 7.19521 21.953 7.74081 21.9884C8.28641 22.0238 8.83347 21.9469 9.34822 21.7626C9.86296 21.5783 10.3345 21.2905 10.7336 20.9168C11.1327 20.5431 11.451 20.0916 11.6688 19.5901C11.8866 19.0886 11.9992 18.5478 11.9998 18.001M4.03283 17.484C4.6331 17.8226 5.31103 18.0012 6.0002 18.0009M11.9998 18.001L18 18.001C18.5304 18.001 19.0391 18.2117 19.4142 18.5868C19.7893 18.9618 20 19.4705 20 20.001V21.001M9 13.001C9.83956 12.7056 10.5727 12.168 11.1067 11.456C11.6407 10.744 11.9515 9.88965 12 9.00098M12 13.001H16M12 8.00098H20M16 8.00098V5.00098C16 4.47054 16.2107 3.96184 16.5858 3.58676C16.9609 3.21169 17.4696 3.00098 18 3.00098M16.5 13.001C16.5 13.2771 16.2761 13.501 16 13.501C15.7239 13.501 15.5 13.2771 15.5 13.001C15.5 12.7248 15.7239 12.501 16 12.501C16.2761 12.501 16.5 12.7248 16.5 13.001ZM18.5 3.00098C18.5 3.27712 18.2761 3.50098 18 3.50098C17.7239 3.50098 17.5 3.27712 17.5 3.00098C17.5 2.72483 17.7239 2.50098 18 2.50098C18.2761 2.50098 18.5 2.72483 18.5 3.00098ZM20.5 21.001C20.5 21.2771 20.2761 21.501 20 21.501C19.7239 21.501 19.5 21.2771 19.5 21.001C19.5 20.7248 19.7239 20.501 20 20.501C20.2761 20.501 20.5 20.7248 20.5 21.001ZM20.5 8.00098C20.5 8.27712 20.2761 8.50098 20 8.50098C19.7239 8.50098 19.5 8.27712 19.5 8.00098C19.5 7.72483 19.7239 7.50098 20 7.50098C20.2761 7.50098 20.5 7.72483 20.5 8.00098Z" stroke="#09090B" stroke-width="2" stroke-linecap="round" stroke-linejoin="round"/>
</svg>
