<svg width="30" height="30" viewBox="0 0 30 30" fill="none" xmlns="http://www.w3.org/2000/svg">
<circle cx="15" cy="15" r="15" fill="#DCFCE7"/>
<path d="M23.1083 14.2535V14.9995C23.1073 16.7479 22.5411 18.4492 21.4943 19.8496C20.4474 21.25 18.9758 22.2745 17.2991 22.7702C15.6224 23.2659 13.8304 23.2064 12.1903 22.6005C10.5502 21.9946 9.14992 20.8747 8.19827 19.4079C7.24663 17.9411 6.79462 16.206 6.90967 14.4613C7.02471 12.7167 7.70064 11.0559 8.83664 9.72682C9.97265 8.3977 11.5079 7.4714 13.2133 7.08607C14.9188 6.70075 16.7031 6.87704 18.3002 7.58866M23.1083 8.51298L15.0002 16.6292L12.5678 14.1968" stroke="#16A34A" stroke-width="1.5" stroke-linecap="round" stroke-linejoin="round"/>
</svg>
