<svg width="17" height="16" viewBox="0 0 17 16" fill="none" xmlns="http://www.w3.org/2000/svg">
<path d="M8.7113 8.00065C8.7113 7.63246 8.41128 7.33398 8.0412 7.33398C7.67111 7.33398 7.37109 7.63246 7.37109 8.00065C7.37109 8.36884 7.67111 8.66732 8.0412 8.66732C8.41128 8.66732 8.7113 8.36884 8.7113 8.00065Z" stroke="#595959" stroke-width="1.5" stroke-linecap="round" stroke-linejoin="round"/>
<path d="M8.7113 3.33398C8.7113 2.96579 8.41128 2.66732 8.0412 2.66732C7.67111 2.66732 7.37109 2.96579 7.37109 3.33398C7.37109 3.70217 7.67111 4.00065 8.0412 4.00065C8.41128 4.00065 8.7113 3.70217 8.7113 3.33398Z" stroke="#595959" stroke-width="1.5" stroke-linecap="round" stroke-linejoin="round"/>
<path d="M8.7113 12.6673C8.7113 12.2991 8.41128 12.0007 8.0412 12.0007C7.67111 12.0007 7.37109 12.2991 7.37109 12.6673C7.37109 13.0355 7.67111 13.334 8.0412 13.334C8.41128 13.334 8.7113 13.0355 8.7113 12.6673Z" stroke="#595959" stroke-width="1.5" stroke-linecap="round" stroke-linejoin="round"/>
</svg>
