<svg width="14" height="14" viewBox="0 0 14 14" fill="none" xmlns="http://www.w3.org/2000/svg">
<path d="M11.6667 4.08268H9.91667C9.60725 4.08268 9.3105 3.95977 9.09171 3.74097C8.87292 3.52218 8.75 3.22543 8.75 2.91602V1.16602M1.75 4.43274V11.8994C1.75 12.1469 1.84833 12.3843 2.02337 12.5594C2.1984 12.7344 2.4358 12.8327 2.68333 12.8327H8.4M5.25 10.4993C4.94058 10.4993 4.64383 10.3764 4.42504 10.1576C4.20625 9.93885 4.08333 9.6421 4.08333 9.33268V2.33268C4.08333 2.02326 4.20625 1.72652 4.42504 1.50772C4.64383 1.28893 4.94058 1.16602 5.25 1.16602H9.33333L11.6667 3.49935V9.33268C11.6667 9.6421 11.5438 9.93885 11.325 10.1576C11.1062 10.3764 10.8094 10.4993 10.5 10.4993H5.25Z" stroke="#09090B" stroke-linecap="round" stroke-linejoin="round"/>
</svg>
