<svg width="22" height="22" viewBox="0 0 22 22" fill="none" xmlns="http://www.w3.org/2000/svg">
<path d="M10.714 2.80645C11.0644 2.96577 11.3833 3.18685 11.6554 3.45911L17.1261 8.93161C17.4011 9.20661 17.6211 9.5247 17.7778 9.87211M10.714 2.80645C10.2971 2.6172 9.84451 2.51937 9.38666 2.51953H7.14266C6.29176 2.51953 5.4757 2.85755 4.87403 3.45923C4.27235 4.06091 3.93433 4.87696 3.93433 5.72786V16.2695C3.93433 17.1204 4.27235 17.9365 4.87403 18.5382C5.4757 19.1398 6.29176 19.4779 7.14266 19.4779H14.8573C15.7082 19.4779 16.5243 19.1398 17.126 18.5382C17.7276 17.9365 18.0657 17.1204 18.0657 16.2695V11.2004C18.0657 10.7374 17.9657 10.2855 17.7778 9.87211M10.714 2.80645V8.03786C10.714 8.52409 10.9071 8.99041 11.251 9.33423C11.5948 9.67804 12.0611 9.8712 12.5473 9.8712L17.7778 9.87211" stroke="#3F3F46" stroke-width="1.5" stroke-linecap="round" stroke-linejoin="round"/>
</svg>
