<svg width="14" height="14" viewBox="0 0 14 14" fill="none" xmlns="http://www.w3.org/2000/svg">
<path d="M2.33268 11.6673C2.01185 11.6673 1.7372 11.5531 1.50872 11.3246C1.28025 11.0961 1.16602 10.8215 1.16602 10.5007V3.50065C1.16602 3.17982 1.28025 2.90517 1.50872 2.67669C1.7372 2.44822 2.01185 2.33398 2.33268 2.33398H5.83268L6.99935 3.50065H11.666C11.9868 3.50065 12.2615 3.61489 12.49 3.84336C12.7184 4.07183 12.8327 4.34648 12.8327 4.66732V10.5007C12.8327 10.8215 12.7184 11.0961 12.49 11.3246C12.2615 11.5531 11.9868 11.6673 11.666 11.6673H2.33268ZM2.33268 10.5007H11.666V4.66732H6.5181L5.35143 3.50065H2.33268V10.5007Z" fill="#1D1B20"/>
</svg>
