<svg width="16" height="16" viewBox="0 0 16 16" fill="none" xmlns="http://www.w3.org/2000/svg">
<path d="M9.62789 0.859873C9.46001 0.61903 9.24135 0.417921 8.98733 0.270711C8.7333 0.123502 8.45008 0.0337735 8.15761 0.00784672C7.86515 -0.0180801 7.57055 0.0204254 7.29458 0.120651C7.01861 0.220876 6.76798 0.380383 6.56033 0.587936L4.19339 2.95505C3.97762 3.17085 3.81388 3.43299 3.7146 3.72154C3.61533 4.01009 3.58314 4.31747 3.62048 4.62033C3.65782 4.92318 3.7637 5.21354 3.93009 5.46936C4.09647 5.72517 4.31898 5.9397 4.58071 6.09666L6.2763 7.11384L0.568677 12.7166C0.389563 12.8941 0.247155 13.105 0.149585 13.3375C0.052015 13.5699 0.001193 13.8193 2.0779e-05 14.0714C-0.00234662 14.5805 0.197664 15.0697 0.556053 15.4314C0.914442 15.7931 1.40185 15.9976 1.91106 16C2.42026 16.0023 2.90955 15.8024 3.27129 15.444L8.92441 9.79189L9.92512 11.4597C10.0795 11.7169 10.2896 11.9363 10.5399 12.1017C10.7902 12.2672 11.0745 12.3744 11.3717 12.4156C11.6689 12.4567 11.9716 12.4308 12.2575 12.3396C12.5433 12.2485 12.8052 12.0944 13.0237 11.8888L15.3682 9.68232C15.5808 9.4822 15.7473 9.23814 15.8559 8.96714C15.9645 8.69613 16.0127 8.4047 15.9971 8.11316C15.9816 7.82162 15.9026 7.53698 15.7657 7.27908C15.6289 7.02117 15.4374 6.79622 15.2047 6.61988L11.9684 4.16843C11.9204 4.13221 11.8784 4.08865 11.8439 4.03935L9.62789 0.859873ZM7.37169 1.39916C7.46068 1.31021 7.56808 1.24186 7.68634 1.19891C7.8046 1.15596 7.93085 1.13945 8.05618 1.15056C8.18151 1.16166 8.30288 1.2001 8.41175 1.26318C8.52061 1.32625 8.61432 1.41242 8.68628 1.51562L9.0822 2.08301L5.72143 5.44263L5.17058 5.11218C5.05845 5.04485 4.96314 4.95286 4.89189 4.84318C4.82065 4.73351 4.77534 4.60905 4.75941 4.47924C4.74348 4.34944 4.75734 4.21772 4.79995 4.09408C4.84257 3.97043 4.9128 3.85813 5.00533 3.76569L7.37169 1.39916ZM6.73592 6.05076L9.74839 3.03881L10.9023 4.69452C11.0055 4.84255 11.1314 4.97342 11.2753 5.08235L12.7276 6.18271L9.83331 9.07591L8.96113 7.62157C8.81556 7.37928 8.61258 7.17654 8.37011 7.03122L6.73592 6.05076ZM10.4421 10.0902L13.6508 6.88206L14.5115 7.53379C14.6113 7.60937 14.6934 7.70579 14.752 7.81634C14.8107 7.92689 14.8445 8.0489 14.8512 8.17387C14.8579 8.29883 14.8372 8.42375 14.7906 8.53991C14.744 8.65607 14.6727 8.76067 14.5815 8.84643L12.237 11.0523C12.1434 11.1404 12.0312 11.2064 11.9087 11.2455C11.7862 11.2846 11.6565 11.2957 11.5292 11.2781C11.4018 11.2605 11.28 11.2146 11.1727 11.1438C11.0654 11.0729 10.9754 10.9789 10.9092 10.8687L10.4421 10.0902ZM8.3156 8.77701L2.45993 14.6322C2.38786 14.7036 2.30243 14.7601 2.20852 14.7985C2.1146 14.8369 2.01405 14.8564 1.9126 14.8559C1.81115 14.8554 1.71079 14.835 1.61725 14.7957C1.5237 14.7564 1.43881 14.6991 1.36741 14.6271C1.29601 14.555 1.23951 14.4696 1.20113 14.3757C1.16275 14.2818 1.14325 14.1813 1.14373 14.0798C1.1442 13.9784 1.16466 13.8781 1.20393 13.7845C1.24319 13.691 1.3005 13.6061 1.37258 13.5348L7.29308 7.72311L7.77967 8.0157C7.86 8.06389 7.92828 8.13102 7.97648 8.21191L8.3156 8.77701ZM9.75527 13.6948C9.60309 13.6948 9.45714 13.7553 9.34953 13.8628C9.24192 13.9704 9.18147 14.1164 9.18147 14.2685C9.18147 14.4207 9.24192 14.5666 9.34953 14.6742C9.45714 14.7818 9.60309 14.8422 9.75527 14.8422H8.60767C8.45548 14.8422 8.30953 14.9027 8.20193 15.0103C8.09432 15.1178 8.03386 15.2638 8.03386 15.4159C8.03386 15.5681 8.09432 15.714 8.20193 15.8216C8.30953 15.9292 8.45548 15.9896 8.60767 15.9896H15.1106C15.2628 15.9896 15.4087 15.9292 15.5163 15.8216C15.6239 15.714 15.6844 15.5681 15.6844 15.4159C15.6844 15.2638 15.6239 15.1178 15.5163 15.0103C15.4087 14.9027 15.2628 14.8422 15.1106 14.8422H13.7719C13.9241 14.8422 14.07 14.7818 14.1776 14.6742C14.2852 14.5666 14.3457 14.4207 14.3457 14.2685C14.3457 14.1164 14.2852 13.9704 14.1776 13.8628C14.07 13.7553 13.9241 13.6948 13.7719 13.6948H9.75527Z" fill="black"/>
</svg>
