<svg width="22" height="22" viewBox="0 0 22 22" fill="none" xmlns="http://www.w3.org/2000/svg">
<path d="M7.66667 20H5.77778C4.77585 20 3.81496 19.5621 3.10649 18.7826C2.39801 18.0031 2 16.9458 2 15.8435V9.30521C1.99999 8.59051 2.16747 7.88788 2.48626 7.26517C2.80506 6.64247 3.26441 6.12072 3.81994 5.75033L8.54217 2.60175C9.13255 2.20812 9.80968 2 10.5 2C11.1903 2 11.8674 2.20812 12.4578 2.60175L17.1801 5.75033C17.7355 6.12063 18.1947 6.64221 18.5135 7.26472C18.8323 7.88723 18.9999 8.58965 19 9.30417V15.8435C19 16.9458 18.602 18.0031 17.8935 18.7826C17.185 19.5621 16.2242 20 15.2222 20H13.3333M7.66667 20V15.8435C7.66667 15.0167 7.96518 14.2237 8.49653 13.6391C9.02788 13.0545 9.74855 12.726 10.5 12.726C11.2514 12.726 11.9721 13.0545 12.5035 13.6391C13.0348 14.2237 13.3333 15.0167 13.3333 15.8435V20M7.66667 20H13.3333" stroke="#3F3F46" stroke-width="1.5" stroke-linecap="round" stroke-linejoin="round"/>
</svg>
