<svg width="16" height="16" viewBox="0 0 16 16" fill="none" xmlns="http://www.w3.org/2000/svg">
<g clip-path="url(#clip0_3093_3875)">
<path d="M7.30987 9.43787L7.68747 9.06133L6.93333 8.3072L6.5568 8.68373L7.30987 9.43787ZM9.6 11.1925V11.7259H10.6667V11.1925H9.6ZM10.6667 10.1269V9.5936H9.6V10.1269H10.6667ZM9.6 1.6V2.13333H10.6667V1.6H9.6ZM10.6667 0.533333V0H9.6V0.533333H10.6667ZM4.8 5.33013H4.26667V6.3968H4.8V5.33013ZM5.86667 6.3968H6.4V5.33013H5.86667V6.3968ZM14.4 5.33013H13.8667V6.3968H14.4V5.33013ZM15.4667 6.3968H16V5.33013H15.4667V6.3968ZM12.9568 2.288L12.5792 2.6656L13.3333 3.41973L13.7099 3.04213L12.9568 2.288ZM14.7765 1.97653L15.1541 1.6L14.4 0.8448L14.0235 1.2224L14.7765 1.97653ZM6.2432 1.2224L5.86667 0.8448L5.11253 1.6L5.49013 1.97653L6.2432 1.2224ZM6.5568 3.04213L6.93333 3.41973L7.68747 2.6656L7.30987 2.288L6.5568 3.04213ZM13.7099 8.6848L13.3333 8.3072L12.5792 9.06133L12.9568 9.43787L13.7099 8.68373V8.6848ZM14.0235 10.5045L14.4 10.8811L15.1541 10.1269L14.7765 9.74933L14.0235 10.5045ZM0.909866 15.8336L7.30987 9.43787L6.5568 8.68373L0.156799 15.0795L0.909866 15.8336ZM10.6667 11.1947V10.1269H9.6V11.1947H10.6667ZM10.6667 1.6V0.533333H9.6V1.6H10.6667ZM4.8 6.3968H5.86667V5.33013H4.8V6.3968ZM14.4 6.3968H15.4667V5.33013H14.4V6.3968ZM13.7099 3.04213L14.7765 1.97653L14.0235 1.2224L12.9568 2.288L13.7099 3.04213ZM5.49013 1.97653L6.5568 3.04213L7.30987 2.288L6.2432 1.22133L5.49013 1.97653ZM12.9568 9.43787L14.0235 10.5045L14.7765 9.74933L13.7099 8.68373L12.9568 9.43787Z" fill="#5B5B5B"/>
</g>
<defs>
<clipPath id="clip0_3093_3875">
<rect width="16" height="16" fill="white"/>
</clipPath>
</defs>
</svg>
