<svg width="30" height="30" viewBox="0 0 30 30" fill="none" xmlns="http://www.w3.org/2000/svg">
<circle cx="15" cy="15" r="15" fill="#FFD091"/>
<path d="M11.25 21.75H18.75M15 8.25V21.75M8.25 11.25H9.75C11.25 11.25 13.5 10.5 15 9.75C16.5 10.5 18.75 11.25 20.25 11.25H21.75M18 18L20.25 12L22.5 18C21.8475 18.4875 21.06 18.75 20.25 18.75C19.44 18.75 18.6525 18.4875 18 18ZM7.5 18L9.75 12L12 18C11.3475 18.4875 10.56 18.75 9.75 18.75C8.94 18.75 8.1525 18.4875 7.5 18Z" stroke="#FF6200" stroke-width="1.3" stroke-linecap="round" stroke-linejoin="round"/>
</svg>
