<svg width="16" height="16" viewBox="0 0 16 16" fill="none" xmlns="http://www.w3.org/2000/svg">
<path d="M1.71415 4.57087H14.2856M7.99986 4.57087V2.28516M6.28557 10.8566L3.42843 4.57087L0.571289 10.8566C0.571289 11.6143 0.872309 12.3411 1.40813 12.8769C1.94394 13.4127 2.67067 13.7137 3.42843 13.7137C4.18619 13.7137 4.91292 13.4127 5.44874 12.8769C5.98455 12.3411 6.28557 11.6143 6.28557 10.8566ZM15.4284 10.8566L12.5713 4.57087L9.71415 10.8566C9.71415 11.6143 10.0152 12.3411 10.551 12.8769C11.0868 13.4127 11.8135 13.7137 12.5713 13.7137C13.329 13.7137 14.0558 13.4127 14.5916 12.8769C15.1274 12.3411 15.4284 11.6143 15.4284 10.8566Z" stroke="black" stroke-linecap="round" stroke-linejoin="round"/>
</svg>
