<svg width="26" height="20" viewBox="0 0 26 20" fill="none" xmlns="http://www.w3.org/2000/svg">
<path d="M22.33 8.48684V16.1141C22.33 16.9243 22.0082 17.7012 21.4353 18.2741C20.8624 18.8469 20.0855 19.1688 19.2753 19.1688H7.05467C6.24452 19.1688 5.46755 18.8469 4.89469 18.2741C4.32183 17.7012 4 16.9243 4 16.1141V5.05467C4 4.24452 4.32183 3.46755 4.89469 2.89469C5.46755 2.32183 6.24452 2 7.05467 2H10.1103C10.6144 1.99967 11.1107 2.12408 11.555 2.36213C11.9993 2.60019 12.3778 2.94449 12.6567 3.36435L13.5217 4.67816C13.6803 4.91311 13.8941 5.10554 14.1444 5.23856C14.3948 5.37157 14.6739 5.44112 14.9574 5.44109H19.2753C20.0839 5.44134 20.8593 5.76204 21.4319 6.33291C22.0044 6.90379 22.3274 7.67832 22.33 8.48684Z" stroke="#3F3F46" stroke-width="1.5" stroke-linecap="round" stroke-linejoin="round"/>
</svg>
