<svg width="16" height="16" viewBox="0 0 16 16" fill="none" xmlns="http://www.w3.org/2000/svg">
<path d="M10.0001 4.66602H12.0001C12.4378 4.66602 12.8713 4.75223 13.2757 4.91975C13.6801 5.08727 14.0476 5.3328 14.3571 5.64233C14.6666 5.95185 14.9122 6.31932 15.0797 6.72374C15.2472 7.12816 15.3334 7.56161 15.3334 7.99935C15.3334 8.43709 15.2472 8.87054 15.0797 9.27496C14.9122 9.67938 14.6666 10.0468 14.3571 10.3564C14.0476 10.6659 13.6801 10.9114 13.2757 11.0789C12.8713 11.2465 12.4378 11.3327 12.0001 11.3327H10.0001M6.00008 11.3327H4.00008C3.56234 11.3327 3.12889 11.2465 2.72447 11.0789C2.32005 10.9114 1.95259 10.6659 1.64306 10.3564C1.01794 9.73125 0.666748 8.8834 0.666748 7.99935C0.666748 7.11529 1.01794 6.26745 1.64306 5.64233C2.26818 5.01721 3.11603 4.66602 4.00008 4.66602H6.00008M5.33341 7.99935H10.6667" stroke="#1980E6" stroke-linecap="round" stroke-linejoin="round"/>
</svg>
