<svg width="22" height="22" viewBox="0 0 22 22" fill="none" xmlns="http://www.w3.org/2000/svg">
<path d="M1.83398 6.41667C1.83398 5.13333 1.83398 4.49167 2.08332 4.00125C2.30307 3.56982 2.65381 3.21908 3.08523 2.99933C3.57565 2.75 4.21732 2.75 5.50065 2.75C6.78398 2.75 7.42565 2.75 7.91607 2.99933C8.34749 3.21908 8.69824 3.56982 8.91798 4.00125C9.16732 4.49167 9.16732 5.13333 9.16732 6.41667M1.83398 6.41667V15.5833C1.83398 16.8667 1.83398 17.5083 2.08332 17.9988C2.30322 18.4298 2.65395 18.7802 3.08523 18.9997C3.57565 19.25 4.21732 19.25 5.50065 19.25C6.78398 19.25 7.42565 19.25 7.91607 18.9997C8.34735 18.7802 8.69808 18.4298 8.91798 17.9988C9.16732 17.5083 9.16732 16.8667 9.16732 15.5833V6.41667M1.83398 6.41667H9.16732M5.50065 15.5833H5.5089M16.2999 15.3037L16.3082 15.3019M11.0007 7.33333L16.959 5.5M10.4956 7.579C10.1702 6.35983 10.007 5.75025 10.1197 5.22133C10.2178 4.75623 10.4604 4.33402 10.8127 4.015C11.2133 3.65292 11.8211 3.48975 13.0347 3.1625C14.2484 2.83617 14.8562 2.673 15.3823 2.78575C15.8464 2.88472 16.2669 3.1287 16.5832 3.48242C16.9443 3.88392 17.1075 4.4935 17.4329 5.71267L19.7557 14.421C20.0812 15.6402 20.2443 16.2498 20.1316 16.7787C20.0335 17.2438 19.7909 17.666 19.4386 17.985C19.038 18.3471 18.4302 18.5102 17.2166 18.8375C16.0029 19.1638 15.3961 19.327 14.869 19.2143C14.4052 19.1147 13.9848 18.8708 13.6682 18.5176C13.307 18.1161 13.1438 17.5065 12.8184 16.2873L10.4956 7.579Z" stroke="#3F3F46" stroke-width="1.5" stroke-linecap="round" stroke-linejoin="round"/>
</svg>
