<svg width="484" height="38" viewBox="0 0 484 38" fill="none" xmlns="http://www.w3.org/2000/svg">
<rect x="0.5" y="0.5" width="483" height="37" rx="9.5" fill="white"/>
<rect x="0.5" y="0.5" width="483" height="37" rx="9.5" stroke="#3B3B3B"/>
<path d="M161.75 19C161.75 17.2098 162.461 15.4929 163.727 14.227C164.993 12.9612 166.71 12.25 168.5 12.25C170.387 12.2571 172.198 12.9934 173.555 14.305L175.25 16M175.25 16V12.25M175.25 16H171.5M175.25 19C175.25 20.7902 174.539 22.5071 173.273 23.773C172.007 25.0388 170.29 25.75 168.5 25.75C166.613 25.7429 164.802 25.0066 163.445 23.695L161.75 22M161.75 22H165.5M161.75 22V25.75" stroke="#3B3B3B" stroke-width="1.5" stroke-linecap="round" stroke-linejoin="round"/>
<path d="M188.522 23.5V14.1943H192.648C193.477 14.1943 194.108 14.279 194.54 14.4482C194.971 14.6133 195.316 14.9074 195.574 15.3306C195.832 15.7537 195.961 16.2214 195.961 16.7334C195.961 17.3936 195.748 17.95 195.32 18.4028C194.893 18.8556 194.233 19.1434 193.34 19.2661C193.666 19.4227 193.913 19.5771 194.083 19.7295C194.442 20.0596 194.783 20.4722 195.104 20.9673L196.723 23.5H195.174L193.943 21.564C193.583 21.0054 193.287 20.578 193.054 20.2817C192.821 19.9855 192.612 19.7782 192.426 19.6597C192.244 19.5412 192.058 19.4587 191.867 19.4121C191.728 19.3825 191.499 19.3677 191.182 19.3677H189.753V23.5H188.522ZM189.753 18.3013H192.4C192.963 18.3013 193.403 18.2441 193.721 18.1299C194.038 18.0114 194.279 17.8252 194.444 17.5713C194.609 17.3132 194.692 17.0339 194.692 16.7334C194.692 16.2933 194.531 15.9315 194.209 15.6479C193.892 15.3644 193.389 15.2227 192.699 15.2227H189.753V18.3013ZM202.366 21.3291L203.547 21.4751C203.361 22.1649 203.016 22.7002 202.512 23.0811C202.009 23.4619 201.365 23.6523 200.583 23.6523C199.597 23.6523 198.814 23.3498 198.234 22.7446C197.658 22.1353 197.371 21.2826 197.371 20.1865C197.371 19.0524 197.663 18.1722 198.247 17.5459C198.831 16.9196 199.588 16.6064 200.519 16.6064C201.42 16.6064 202.157 16.9132 202.728 17.5269C203.299 18.1405 203.585 19.0037 203.585 20.1167C203.585 20.1844 203.583 20.286 203.579 20.4214H198.551C198.594 21.1619 198.803 21.729 199.18 22.1226C199.556 22.5161 200.026 22.7129 200.589 22.7129C201.008 22.7129 201.365 22.6029 201.662 22.3828C201.958 22.1628 202.193 21.8115 202.366 21.3291ZM198.615 19.4819H202.379C202.328 18.9149 202.184 18.4896 201.947 18.2061C201.583 17.766 201.111 17.5459 200.532 17.5459C200.007 17.5459 199.565 17.7215 199.205 18.0728C198.85 18.424 198.653 18.8937 198.615 19.4819ZM204.975 23.5V16.7588H206.003V17.7808C206.266 17.3026 206.507 16.9873 206.727 16.835C206.951 16.6826 207.197 16.6064 207.463 16.6064C207.848 16.6064 208.24 16.7292 208.638 16.9746L208.244 18.0347C207.965 17.8696 207.686 17.7871 207.406 17.7871C207.157 17.7871 206.932 17.8633 206.733 18.0156C206.535 18.1637 206.393 18.3711 206.308 18.6377C206.181 19.0439 206.118 19.4883 206.118 19.9707V23.5H204.975ZM213.735 23.5V22.5098C213.21 23.2715 212.497 23.6523 211.596 23.6523C211.198 23.6523 210.826 23.5762 210.479 23.4238C210.136 23.2715 209.88 23.0811 209.71 22.8525C209.545 22.6198 209.429 22.3363 209.361 22.002C209.315 21.7777 209.292 21.4222 209.292 20.9355V16.7588H210.434V20.4976C210.434 21.0942 210.457 21.4963 210.504 21.7036C210.576 22.0041 210.728 22.241 210.961 22.4146C211.194 22.5838 211.481 22.6685 211.824 22.6685C212.167 22.6685 212.489 22.5817 212.789 22.4082C213.09 22.2305 213.301 21.9914 213.424 21.6909C213.551 21.3862 213.614 20.9461 213.614 20.3706V16.7588H214.757V23.5H213.735ZM216.553 23.5V16.7588H217.582V17.7173C218.077 16.9767 218.792 16.6064 219.727 16.6064C220.133 16.6064 220.506 16.6805 220.844 16.8286C221.187 16.9725 221.443 17.1629 221.612 17.3999C221.782 17.6369 221.9 17.9183 221.968 18.2441C222.01 18.4557 222.031 18.826 222.031 19.355V23.5H220.889V19.3994C220.889 18.9339 220.844 18.5869 220.755 18.3584C220.667 18.1257 220.508 17.9416 220.279 17.8062C220.055 17.6665 219.791 17.5967 219.486 17.5967C218.999 17.5967 218.578 17.7511 218.223 18.0601C217.871 18.369 217.696 18.9551 217.696 19.8184V23.5H216.553ZM229.902 22.478L230.067 23.4873C229.746 23.555 229.458 23.5889 229.204 23.5889C228.789 23.5889 228.468 23.5233 228.239 23.3921C228.011 23.2609 227.85 23.0895 227.757 22.8779C227.664 22.6621 227.617 22.2114 227.617 21.5259V17.6475H226.779V16.7588H227.617V15.0894L228.753 14.4038V16.7588H229.902V17.6475H228.753V21.5894C228.753 21.9152 228.772 22.1247 228.811 22.2178C228.853 22.3109 228.918 22.3849 229.007 22.4399C229.1 22.495 229.232 22.5225 229.401 22.5225C229.528 22.5225 229.695 22.5076 229.902 22.478ZM230.601 20.1294C230.601 18.881 230.948 17.9564 231.642 17.3555C232.221 16.8561 232.928 16.6064 233.762 16.6064C234.688 16.6064 235.446 16.9111 236.034 17.5205C236.622 18.1257 236.917 18.9635 236.917 20.0342C236.917 20.9017 236.785 21.5851 236.523 22.0845C236.265 22.5796 235.886 22.9647 235.387 23.2397C234.892 23.5148 234.35 23.6523 233.762 23.6523C232.818 23.6523 232.054 23.3498 231.47 22.7446C230.89 22.1395 230.601 21.2677 230.601 20.1294ZM231.775 20.1294C231.775 20.9927 231.963 21.6401 232.34 22.0718C232.716 22.4992 233.19 22.7129 233.762 22.7129C234.329 22.7129 234.801 22.4971 235.177 22.0654C235.554 21.6338 235.742 20.9757 235.742 20.0913C235.742 19.2576 235.552 18.6271 235.171 18.1997C234.794 17.7681 234.325 17.5522 233.762 17.5522C233.19 17.5522 232.716 17.766 232.34 18.1934C231.963 18.6208 231.775 19.2661 231.775 20.1294ZM242.045 23.5V14.1943H246.171C247.001 14.1943 247.631 14.279 248.063 14.4482C248.495 14.6133 248.84 14.9074 249.098 15.3306C249.356 15.7537 249.485 16.2214 249.485 16.7334C249.485 17.3936 249.271 17.95 248.844 18.4028C248.416 18.8556 247.756 19.1434 246.863 19.2661C247.189 19.4227 247.437 19.5771 247.606 19.7295C247.966 20.0596 248.306 20.4722 248.628 20.9673L250.247 23.5H248.698L247.466 21.564C247.107 21.0054 246.81 20.578 246.578 20.2817C246.345 19.9855 246.135 19.7782 245.949 19.6597C245.767 19.5412 245.581 19.4587 245.391 19.4121C245.251 19.3825 245.022 19.3677 244.705 19.3677H243.277V23.5H242.045ZM243.277 18.3013H245.924C246.487 18.3013 246.927 18.2441 247.244 18.1299C247.562 18.0114 247.803 17.8252 247.968 17.5713C248.133 17.3132 248.215 17.0339 248.215 16.7334C248.215 16.2933 248.055 15.9315 247.733 15.6479C247.416 15.3644 246.912 15.2227 246.222 15.2227H243.277V18.3013ZM255.89 21.3291L257.07 21.4751C256.884 22.1649 256.539 22.7002 256.036 23.0811C255.532 23.4619 254.889 23.6523 254.106 23.6523C253.12 23.6523 252.337 23.3498 251.757 22.7446C251.182 22.1353 250.894 21.2826 250.894 20.1865C250.894 19.0524 251.186 18.1722 251.77 17.5459C252.354 16.9196 253.111 16.6064 254.042 16.6064C254.944 16.6064 255.68 16.9132 256.251 17.5269C256.823 18.1405 257.108 19.0037 257.108 20.1167C257.108 20.1844 257.106 20.286 257.102 20.4214H252.075C252.117 21.1619 252.326 21.729 252.703 22.1226C253.08 22.5161 253.549 22.7129 254.112 22.7129C254.531 22.7129 254.889 22.6029 255.185 22.3828C255.481 22.1628 255.716 21.8115 255.89 21.3291ZM252.138 19.4819H255.902C255.852 18.9149 255.708 18.4896 255.471 18.2061C255.107 17.766 254.635 17.5459 254.055 17.5459C253.53 17.5459 253.088 17.7215 252.729 18.0728C252.373 18.424 252.176 18.8937 252.138 19.4819ZM258.784 23.5V17.6475H257.775V16.7588H258.784V16.0415C258.784 15.5887 258.824 15.2523 258.905 15.0322C259.015 14.736 259.207 14.4969 259.482 14.3149C259.762 14.1287 260.151 14.0356 260.65 14.0356C260.972 14.0356 261.327 14.0737 261.717 14.1499L261.545 15.1465C261.308 15.1042 261.084 15.083 260.873 15.083C260.526 15.083 260.28 15.1571 260.136 15.3052C259.992 15.4533 259.92 15.7305 259.92 16.1367V16.7588H261.234V17.6475H259.92V23.5H258.784ZM262.117 23.5V16.7588H263.145V17.7808C263.407 17.3026 263.649 16.9873 263.869 16.835C264.093 16.6826 264.338 16.6064 264.605 16.6064C264.99 16.6064 265.382 16.7292 265.779 16.9746L265.386 18.0347C265.106 17.8696 264.827 17.7871 264.548 17.7871C264.298 17.7871 264.074 17.8633 263.875 18.0156C263.676 18.1637 263.534 18.3711 263.45 18.6377C263.323 19.0439 263.259 19.4883 263.259 19.9707V23.5H262.117ZM271.073 21.3291L272.254 21.4751C272.068 22.1649 271.723 22.7002 271.219 23.0811C270.716 23.4619 270.072 23.6523 269.29 23.6523C268.304 23.6523 267.521 23.3498 266.941 22.7446C266.365 22.1353 266.078 21.2826 266.078 20.1865C266.078 19.0524 266.37 18.1722 266.954 17.5459C267.538 16.9196 268.295 16.6064 269.226 16.6064C270.127 16.6064 270.864 16.9132 271.435 17.5269C272.006 18.1405 272.292 19.0037 272.292 20.1167C272.292 20.1844 272.29 20.286 272.286 20.4214H267.258C267.301 21.1619 267.51 21.729 267.887 22.1226C268.263 22.5161 268.733 22.7129 269.296 22.7129C269.715 22.7129 270.072 22.6029 270.369 22.3828C270.665 22.1628 270.9 21.8115 271.073 21.3291ZM267.322 19.4819H271.086C271.035 18.9149 270.891 18.4896 270.654 18.2061C270.29 17.766 269.819 17.5459 269.239 17.5459C268.714 17.5459 268.272 17.7215 267.912 18.0728C267.557 18.424 267.36 18.8937 267.322 19.4819ZM273.238 21.4878L274.368 21.3101C274.431 21.7629 274.607 22.1099 274.895 22.3511C275.187 22.5923 275.593 22.7129 276.113 22.7129C276.638 22.7129 277.027 22.6071 277.281 22.3955C277.535 22.1797 277.662 21.9279 277.662 21.6401C277.662 21.382 277.55 21.1789 277.326 21.0308C277.169 20.9292 276.78 20.8001 276.158 20.6436C275.32 20.432 274.738 20.25 274.412 20.0977C274.09 19.9411 273.845 19.7274 273.676 19.4565C273.511 19.1815 273.428 18.8789 273.428 18.5488C273.428 18.2484 273.496 17.9712 273.631 17.7173C273.771 17.4591 273.959 17.2454 274.196 17.0762C274.374 16.945 274.615 16.835 274.92 16.7461C275.229 16.653 275.559 16.6064 275.91 16.6064C276.439 16.6064 276.903 16.6826 277.3 16.835C277.702 16.9873 277.999 17.1947 278.189 17.457C278.379 17.7152 278.511 18.0622 278.583 18.498L277.465 18.6504C277.415 18.3034 277.266 18.0326 277.021 17.8379C276.78 17.6432 276.437 17.5459 275.993 17.5459C275.468 17.5459 275.093 17.6326 274.869 17.8062C274.645 17.9797 274.533 18.1828 274.533 18.4155C274.533 18.5636 274.579 18.6969 274.672 18.8154C274.765 18.9382 274.911 19.0397 275.11 19.1201C275.225 19.1624 275.561 19.2598 276.12 19.4121C276.928 19.6279 277.491 19.8057 277.808 19.9453C278.13 20.0807 278.382 20.2796 278.563 20.542C278.745 20.8044 278.836 21.1302 278.836 21.5195C278.836 21.9004 278.724 22.2601 278.5 22.5986C278.28 22.9329 277.96 23.1932 277.542 23.3794C277.123 23.5614 276.649 23.6523 276.12 23.6523C275.244 23.6523 274.575 23.4704 274.114 23.1064C273.657 22.7425 273.365 22.203 273.238 21.4878ZM280.195 23.5V14.1943H281.337V17.5332C281.871 16.9154 282.543 16.6064 283.356 16.6064C283.855 16.6064 284.289 16.7059 284.657 16.9048C285.025 17.0994 285.288 17.3703 285.444 17.7173C285.605 18.0643 285.686 18.5679 285.686 19.228V23.5H284.543V19.228C284.543 18.6567 284.418 18.242 284.168 17.9839C283.923 17.7215 283.574 17.5903 283.121 17.5903C282.783 17.5903 282.463 17.6792 282.163 17.8569C281.866 18.0304 281.655 18.2674 281.528 18.5679C281.401 18.8683 281.337 19.283 281.337 19.812V23.5H280.195ZM290.776 20.5103L291.938 20.4087C291.993 20.8742 292.12 21.2572 292.319 21.5576C292.522 21.8538 292.835 22.0951 293.258 22.2812C293.681 22.4632 294.158 22.5542 294.687 22.5542C295.156 22.5542 295.571 22.4844 295.931 22.3447C296.29 22.2051 296.557 22.0146 296.73 21.7734C296.908 21.528 296.997 21.2614 296.997 20.9736C296.997 20.6816 296.912 20.4277 296.743 20.2119C296.574 19.9919 296.295 19.8078 295.905 19.6597C295.656 19.5623 295.103 19.4121 294.249 19.209C293.394 19.0016 292.795 18.807 292.452 18.625C292.008 18.3923 291.676 18.1045 291.456 17.7617C291.24 17.4147 291.132 17.0275 291.132 16.6001C291.132 16.1304 291.265 15.6924 291.532 15.2861C291.798 14.8757 292.188 14.5646 292.7 14.353C293.212 14.1414 293.781 14.0356 294.407 14.0356C295.097 14.0356 295.704 14.1478 296.229 14.3721C296.758 14.5921 297.164 14.918 297.448 15.3496C297.731 15.7812 297.884 16.27 297.905 16.8159L296.724 16.9048C296.661 16.3166 296.445 15.8722 296.077 15.5718C295.713 15.2713 295.173 15.1211 294.458 15.1211C293.713 15.1211 293.169 15.2586 292.827 15.5337C292.488 15.8045 292.319 16.1325 292.319 16.5176C292.319 16.8519 292.439 17.127 292.681 17.3428C292.918 17.5586 293.535 17.7808 294.534 18.0093C295.537 18.2336 296.225 18.4303 296.597 18.5996C297.139 18.8493 297.539 19.1667 297.797 19.5518C298.055 19.9326 298.184 20.3727 298.184 20.8721C298.184 21.3672 298.042 21.8348 297.759 22.2749C297.475 22.7108 297.067 23.0514 296.534 23.2969C296.005 23.5381 295.408 23.6587 294.744 23.6587C293.902 23.6587 293.195 23.536 292.624 23.2905C292.056 23.0451 291.61 22.6769 291.284 22.186C290.963 21.6909 290.793 21.1323 290.776 20.5103ZM304.119 21.0308L305.243 21.1768C305.12 21.9512 304.805 22.5584 304.297 22.9985C303.793 23.4344 303.173 23.6523 302.437 23.6523C301.514 23.6523 300.772 23.3519 300.209 22.751C299.65 22.1458 299.371 21.2804 299.371 20.1548C299.371 19.4269 299.492 18.79 299.733 18.2441C299.974 17.6982 300.34 17.2899 300.831 17.019C301.326 16.744 301.864 16.6064 302.443 16.6064C303.175 16.6064 303.774 16.7926 304.24 17.165C304.705 17.5332 305.004 18.0579 305.135 18.7393L304.024 18.9106C303.918 18.4578 303.73 18.1172 303.459 17.8887C303.192 17.6602 302.869 17.5459 302.488 17.5459C301.912 17.5459 301.445 17.7533 301.085 18.168C300.725 18.5785 300.545 19.2301 300.545 20.123C300.545 21.0286 300.719 21.6867 301.066 22.0972C301.413 22.5076 301.866 22.7129 302.424 22.7129C302.873 22.7129 303.247 22.5754 303.548 22.3003C303.848 22.0252 304.039 21.6021 304.119 21.0308ZM305.795 20.1294C305.795 18.881 306.142 17.9564 306.836 17.3555C307.416 16.8561 308.122 16.6064 308.956 16.6064C309.883 16.6064 310.64 16.9111 311.229 17.5205C311.817 18.1257 312.111 18.9635 312.111 20.0342C312.111 20.9017 311.98 21.5851 311.717 22.0845C311.459 22.5796 311.08 22.9647 310.581 23.2397C310.086 23.5148 309.544 23.6523 308.956 23.6523C308.012 23.6523 307.249 23.3498 306.665 22.7446C306.085 22.1395 305.795 21.2677 305.795 20.1294ZM306.969 20.1294C306.969 20.9927 307.158 21.6401 307.534 22.0718C307.911 22.4992 308.385 22.7129 308.956 22.7129C309.523 22.7129 309.995 22.4971 310.372 22.0654C310.748 21.6338 310.937 20.9757 310.937 20.0913C310.937 19.2576 310.746 18.6271 310.365 18.1997C309.989 17.7681 309.519 17.5522 308.956 17.5522C308.385 17.5522 307.911 17.766 307.534 18.1934C307.158 18.6208 306.969 19.2661 306.969 20.1294ZM313.444 23.5V16.7588H314.472V17.7808C314.735 17.3026 314.976 16.9873 315.196 16.835C315.42 16.6826 315.666 16.6064 315.932 16.6064C316.317 16.6064 316.709 16.7292 317.106 16.9746L316.713 18.0347C316.434 17.8696 316.154 17.7871 315.875 17.7871C315.625 17.7871 315.401 17.8633 315.202 18.0156C315.003 18.1637 314.861 18.3711 314.777 18.6377C314.65 19.0439 314.586 19.4883 314.586 19.9707V23.5H313.444ZM322.4 21.3291L323.581 21.4751C323.395 22.1649 323.05 22.7002 322.546 23.0811C322.043 23.4619 321.4 23.6523 320.617 23.6523C319.631 23.6523 318.848 23.3498 318.268 22.7446C317.693 22.1353 317.405 21.2826 317.405 20.1865C317.405 19.0524 317.697 18.1722 318.281 17.5459C318.865 16.9196 319.622 16.6064 320.553 16.6064C321.455 16.6064 322.191 16.9132 322.762 17.5269C323.333 18.1405 323.619 19.0037 323.619 20.1167C323.619 20.1844 323.617 20.286 323.613 20.4214H318.585C318.628 21.1619 318.837 21.729 319.214 22.1226C319.59 22.5161 320.06 22.7129 320.623 22.7129C321.042 22.7129 321.4 22.6029 321.696 22.3828C321.992 22.1628 322.227 21.8115 322.4 21.3291ZM318.649 19.4819H322.413C322.362 18.9149 322.218 18.4896 321.981 18.2061C321.618 17.766 321.146 17.5459 320.566 17.5459C320.041 17.5459 319.599 17.7215 319.239 18.0728C318.884 18.424 318.687 18.8937 318.649 19.4819Z" fill="#3B3B3B"/>
</svg>
