<svg width="22" height="22" viewBox="0 0 22 22" fill="none" xmlns="http://www.w3.org/2000/svg">
<path d="M5.95898 9.16732C6.21212 9.16732 6.41732 8.96211 6.41732 8.70898C6.41732 8.45585 6.21212 8.25065 5.95898 8.25065C5.70585 8.25065 5.50065 8.45585 5.50065 8.70898C5.50065 8.96211 5.70585 9.16732 5.95898 9.16732Z" fill="#44444B"/>
<path d="M13.7507 4.58398L19.5257 10.359C19.7308 10.5634 19.8935 10.8062 20.0045 11.0737C20.1156 11.3411 20.1727 11.6278 20.1727 11.9173C20.1727 12.2069 20.1156 12.4936 20.0045 12.761C19.8935 13.0284 19.7308 13.2713 19.5257 13.4757L15.584 17.4173M8.78782 5.12115C8.44408 4.77731 7.97784 4.58409 7.49165 4.58398H2.75065C2.50754 4.58398 2.27438 4.68056 2.10247 4.85247C1.93056 5.02438 1.83398 5.25754 1.83398 5.50065V10.2417C1.83409 10.7278 2.02731 11.1941 2.37115 11.5378L7.59982 16.7665C8.01646 17.1805 8.57996 17.4129 9.16732 17.4129C9.75468 17.4129 10.3182 17.1805 10.7348 16.7665L14.0165 13.4848C14.4305 13.0682 14.6629 12.5047 14.6629 11.9173C14.6629 11.33 14.4305 10.7665 14.0165 10.3498L8.78782 5.12115ZM6.41732 8.70898C6.41732 8.96211 6.21212 9.16732 5.95898 9.16732C5.70585 9.16732 5.50065 8.96211 5.50065 8.70898C5.50065 8.45585 5.70585 8.25065 5.95898 8.25065C6.21212 8.25065 6.41732 8.45585 6.41732 8.70898Z" stroke="#44444B" stroke-linecap="round" stroke-linejoin="round"/>
</svg>
